<?xml version="1.0" encoding="utf-8"?>
<svg fill="#000000" viewBox="0 0 50 50" width="50px" height="50px" xmlns="http://www.w3.org/2000/svg">
  <path d="M 25 2 C 12.316406 2 2 12.316406 2 25 C 2 37.683594 12.316406 48 25 48 C 37.683594 48 48 37.683594 48 25 C 48 12.316406 37.683594 2 25 2 Z M 28.125 12.9375 C 31.738281 12.972656 35 14.007813 36.5 14.875 C 33.367188 19.09375 34.667969 26.390625 31.1875 31.28125 C 27.929688 35.855469 21.875 36.125 21.875 36.125 L 21.71875 36.125 C 21.671875 38.117188 21.792969 40.03125 22.09375 41.59375 C 22.199219 42.136719 21.855469 42.644531 21.3125 42.75 C 21.25 42.761719 21.1875 42.78125 21.125 42.78125 C 20.65625 42.78125 20.246094 42.449219 20.15625 41.96875 C 20.152344 41.894531 20.144531 41.820313 20.125 41.75 C 20.117188 41.695313 20.109375 41.644531 20.09375 41.59375 C 20.085938 41.546875 20.070313 41.488281 20.0625 41.4375 C 20.011719 41.125 19.945313 40.800781 19.90625 40.46875 C 19.863281 40.125 19.84375 39.765625 19.8125 39.40625 C 19.796875 39.210938 19.792969 39.011719 19.78125 38.8125 C 19.757813 38.4375 19.730469 38.074219 19.71875 37.6875 C 19.707031 37.175781 19.707031 36.652344 19.71875 36.125 C 19.804688 32.726563 20.421875 29.003906 21.8125 26.34375 C 24.5625 21.082031 28.40625 19.21875 28.40625 19.21875 C 28.859375 19.015625 29.097656 18.515625 28.964844 18.035156 C 28.832031 17.558594 28.367188 17.25 27.875 17.3125 C 27.742188 17.328125 27.617188 17.371094 27.5 17.4375 C 27.5 17.4375 23.050781 19.65625 20.03125 25.4375 C 18.523438 28.328125 17.851563 31.941406 17.71875 35.34375 C 15.496094 33.066406 9.613281 25.636719 17.625 17.03125 C 20.554688 13.882813 24.511719 12.902344 28.125 12.9375 Z" style="fill: rgb(43, 188, 56);"/>
</svg>